<svg id="Layer_1" data-name="Layer 1" xmlns="http://www.w3.org/2000/svg" xmlns:xlink="http://www.w3.org/1999/xlink" viewBox="0 0 3840 2160"><defs><style>.cls-1,.cls-4{fill:none;}.cls-2{fill:#f9f9f9;}.cls-3{fill:#fff;}.cls-4{stroke:#fff;stroke-linecap:round;stroke-miterlimit:10;stroke-width:10px;}.cls-5{fill:url(#New_Pattern_Swatch_3);}</style><pattern id="New_Pattern_Swatch_3" data-name="New Pattern Swatch 3" width="687" height="600.76" patternUnits="userSpaceOnUse" viewBox="0 0 687 600.76"><rect class="cls-1" width="687" height="600.76"/><rect class="cls-2" width="687" height="600.76"/><path class="cls-3" d="M154.5,182A44.5,44.5,0,1,0,199,226.5,44.55,44.55,0,0,0,154.5,182m0-10A54.5,54.5,0,1,1,100,226.5,54.5,54.5,0,0,1,154.5,172Z"/><path class="cls-3" d="M589,363a12,12,0,1,0,12,12,12,12,0,0,0-12-12m0-10a22,22,0,1,1-22,22,22,22,0,0,1,22-22Z"/><path class="cls-4" d="M555.82,93.27a54.5,54.5,0,0,1,97.3,49.12"/><path class="cls-4" d="M274.06,534.11a26.6,26.6,0,0,1,35.82-39.35"/><path class="cls-4" d="M483.62,291.11a34,34,0,1,1-64.5,21.53"/><path class="cls-3" d="M567,460.09,516.09,511,567,561.91,617.91,511,567,460.09M567,448a5,5,0,0,1,3.54,1.46l58,58a5,5,0,0,1,0,7.07l-58,58a5,5,0,0,1-7.07,0l-58-58a5,5,0,0,1,0-7.07l58-58A5,5,0,0,1,567,448Z"/><path class="cls-3" d="M377,47H331V93h46V47m5-10a5,5,0,0,1,5,5V98a5,5,0,0,1-5,5H326a5,5,0,0,1-5-5V42a5,5,0,0,1,5-5Z"/><path class="cls-3" d="M420.85,437.22,408.55,463h24.6l-12.3-25.78m0-16.61a4.94,4.94,0,0,1,4.51,2.85l20.22,42.39a5,5,0,0,1-4.51,7.15H400.62a5,5,0,0,1-4.51-7.15l20.22-42.39a4.94,4.94,0,0,1,4.51-2.85Z"/><path class="cls-3" d="M471.62,101.77l-70,54.45,82.14,33.38-12.16-87.82m3.75-14.27a5,5,0,0,1,5,4.32l14.54,105a5,5,0,0,1-6.83,5.32l-98.18-39.9a5,5,0,0,1-1.19-8.58l83.64-65.08a4.93,4.93,0,0,1,3.05-1.06Z"/><path class="cls-3" d="M143.58,50.15,117,72.35l31.57,14.15-5-36.34m3.69-14.63a5,5,0,0,1,5,4.32l7.51,54.22a5,5,0,0,1-7,5.25l-47.1-21.1a5,5,0,0,1-1.16-8.4l39.59-33.11a4.93,4.93,0,0,1,3.19-1.17Z"/><line class="cls-4" x1="117" y1="525" x2="145" y2="525"/><line class="cls-4" x1="131" y1="539" x2="131" y2="511"/><line class="cls-4" x1="252" y1="142" x2="308" y2="142"/><line class="cls-4" x1="280" y1="170" x2="280" y2="114"/><line class="cls-4" x1="300.77" y1="310.5" x2="341" y2="350.73"/><line class="cls-4" x1="341" y1="310.5" x2="300.77" y2="350.73"/><line class="cls-4" x1="21.77" y1="148.5" x2="50" y2="176.73"/><line class="cls-4" x1="50" y1="148.5" x2="21.77" y2="176.73"/><line class="cls-4" x1="571.62" y1="193.88" x2="538.38" y2="227.12"/><line class="cls-4" x1="572.38" y1="193.88" x2="605.62" y2="227.12"/><line class="cls-4" x1="639.62" y1="193.88" x2="606.38" y2="227.12"/><line class="cls-4" x1="640.38" y1="193.88" x2="673.62" y2="227.12"/><line class="cls-4" x1="167.6" y1="409.83" x2="175.44" y2="432.5"/><line class="cls-4" x1="167.77" y1="409.47" x2="190.44" y2="401.63"/><line class="cls-4" x1="182.77" y1="378.61" x2="190.61" y2="401.28"/><line class="cls-4" x1="182.94" y1="378.26" x2="205.61" y2="370.41"/><path class="cls-3" d="M60,431a1,1,0,1,0,1,1,1,1,0,0,0-1-1m0-10a11,11,0,1,1-11,11,11,11,0,0,1,11-11Z"/></pattern></defs><title>Pattern_light</title><rect class="cls-5" width="3840" height="2160"/></svg>